<svg viewBox="0 0 240 64" xmlns="http://www.w3.org/2000/svg" xmlns:xlink="http://www.w3.org/1999/xlink"><linearGradient id="a" gradientUnits="userSpaceOnUse" x1="31.58" x2="31.58" y1="1.41" y2="63.58"><stop offset="0" stop-color="#009fe8"/><stop offset=".22" stop-color="#0096e0"/><stop offset=".59" stop-color="#007eca"/><stop offset="1" stop-color="#005bab"/></linearGradient><path d="m40.85 31.2c9.91-.27 17.15-6.55 17.15-14.57 0-9.42-10.87-15.22-22-15.22-3.91 0-5.29.56-8.12.56-3.71.03-6.79-1.55-10.18-1.55-4 0-8.91 1.25-8.91 3.49 0 .41.27.79 1 .68 2.43-.37 7.18-.72 10.57.55-5.27 2.74-10.16 8.86-10.16 15.86 0 12.28 8.41 18 8.41 29.63 0 4.48-2.27 9.61-7.33 9.61a5.64 5.64 0 0 1 -5.75-5.71c0-2.4 1.29-4.7 3.9-4.7 1.68 0 2.6.92 2.6 1.86s-1.16 1.74-2.12 2c-.46.08-.73.29-.73.56a2 2 0 0 0 2.1 1.66 4.75 4.75 0 0 0 4.86-5c0-3.93-3.47-6.46-7-6.46a9.4 9.4 0 0 0 -9.14 8.89c0 6.34 5.16 10.24 11.31 10.24 9 0 12.59-7.43 12.59-13.34 0-13.68-10-18.81-10-29.6a13.63 13.63 0 0 1 4.74-10.12c.7-.56.71-.15.34.24a14.63 14.63 0 0 0 -3.19 9.32c0 9.44 11.3 15.76 11.3 27.49 0 6.79-2.23 9.58-4.13 11.91-.48.58-.11 1.05.88.53 8.8-4.65 7.87-15.66 5.36-21.44 7.8 3.89 22.71 8.29 22.71 16.6a4.74 4.74 0 0 1 -4.9 5 4.24 4.24 0 0 1 -4.56-4.25 3.15 3.15 0 0 1 3.55-3.41c.69.15.94 0 .94-.83 0-1.65-2.06-3.19-4.15-3.19a6 6 0 0 0 -5.69 6.26c0 6.09 5.5 8.84 10.35 8.84 7.76-.01 10.55-4.59 10.55-9.67 0-16.07-37.7-16.18-37.7-33.73 0-9.1 8.47-14.34 17.51-14.34 7.29 0 14.74 4.83 14.74 11 0 4.73-4.9 9.37-11.71 9.37-6.15 0-11-3.83-11-7.38 0-3.36 3.26-5.73 6.43-5.73 2.66 0 4.42 1.19 4.42 2.89 0 2.69-4.84 2-4.84 3.79 0 1 1.54 2.82 4.83 2.82s5.84-2.34 5.84-5.17c0-3.93-4-7.44-10-7.44-6.61 0-11.72 4-11.72 10 0 16.36 35.8 15.74 35.8 32.21a11 11 0 0 1 -1 4.08c-.17.61.07 1.19 1.05-.09a10 10 0 0 0 2.55-6.82c-.04-11.19-16.07-14.82-22.35-18.18z" fill="url(#a)"/><g fill="#005bab"><path d="m142.81 16.75-6.18 15.75h12.31zm-7.81 20.38-3.25 8.81c-1.31 3.5-1.75 5.31 1.25 6.44v.19h-12.27v-.19c3.63-1.81 4.69-5.31 6.06-8.87l10.44-26.06c.87-2.25 2.06-4.88-.94-5.81v-.19h10.64l13 32.06c1.44 3.56 2.56 7.06 6.12 8.87v.19h-12.8v-.19c3.06-1.37 2.56-2.06.87-6.44l-3.37-8.81z"/><path d="m201.45 19.19a21.72 21.72 0 0 0 -11.56-3.56c-8.62 0-14.62 6.31-14.62 15.37s6.25 17.37 15.87 17.37a27.55 27.55 0 0 0 13.31-3.94h.19l-3.19 7.25a22.15 22.15 0 0 1 -9.45 1.88c-14.75 0-23.87-8.25-23.87-21.62 0-12.94 9.12-21.5 21.94-21.5a49.86 49.86 0 0 1 11.38 1.56z"/><path d="m220.31 47.31 7.94.75a15.58 15.58 0 0 0 11.56-3.69h.19l-2.81 8.19h-26.06v-.19c3.19-1.13 2.81-5.75 2.81-8.56v-23.56c0-2.87.37-7.44-2.81-8.62v-.19h20a6.38 6.38 0 0 0 2.94-.31h.19v7.31h-.19c-1.94-2.25-4.5-2.5-7.37-2.5a35.36 35.36 0 0 0 -6.37.44v11.62h7.44a6.41 6.41 0 0 0 2.75-.37h.19v6.62h-.19c-1-1.81-3.63-1.75-5.56-1.75h-4.62z"/><path d="m92.72 31.19a159.76 159.76 0 0 0 13.37 18.25 8.56 8.56 0 0 0 7.25 3.13h5.75a43.81 43.81 0 0 1 -10.09-8.76l-9-11.31c5.12-1.19 9.94-5.5 9.94-11 0-5.69-4.56-10.06-12.94-10.06h-14.91v.19c3.19 1.19 2.75 5.75 2.75 8.62v23.56c0 2.81.44 7.44-2.75 8.56v.19h11.91v-.19c-3.19-1.13-2.81-5.69-2.81-8.56v-28a32.82 32.82 0 0 1 4.25-.5c4.19-.19 8.06 2.44 8.06 6.94.03 5.88-5.78 8.19-10.78 8.94z"/></g></svg>